<?xml version="1.0" encoding="UTF-8"?>
<svg id="Calque_1" data-name="Calque 1" xmlns="http://www.w3.org/2000/svg" xmlns:xlink="http://www.w3.org/1999/xlink" viewBox="0 0 974.07 288.5">
  <defs>
    <style>
      .cls-1 {
        fill: #000;
      }

      .cls-1, .cls-2, .cls-3, .cls-4, .cls-5, .cls-6, .cls-7, .cls-8, .cls-9, .cls-10 {
        stroke-width: 0px;
      }

      .cls-11 {
        clip-path: url(#clippath-2);
      }

      .cls-2 {
        fill: url(#Dégradé_sans_nom_6-2);
      }

      .cls-3, .cls-12 {
        fill: none;
      }

      .cls-4 {
        fill: #e20613;
      }

      .cls-13 {
        clip-path: url(#clippath-1);
      }

      .cls-12 {
        stroke: #fd0;
        stroke-miterlimit: 10;
        stroke-width: .92px;
      }

      .cls-5 {
        fill: url(#Dégradé_sans_nom_6-5);
      }

      .cls-14 {
        clip-path: url(#clippath);
      }

      .cls-6 {
        fill: url(#Dégradé_sans_nom_6-4);
      }

      .cls-7 {
        fill: #fff;
      }

      .cls-8 {
        fill: url(#Dégradé_sans_nom_6-3);
      }

      .cls-9 {
        fill: url(#Dégradé_sans_nom_6-6);
      }

      .cls-10 {
        fill: url(#Dégradé_sans_nom_6);
      }
    </style>
    <clipPath id="clippath">
      <rect class="cls-3" x="65.84" y="48.05" width="841.86" height="187.9"/>
    </clipPath>
    <clipPath id="clippath-1">
      <rect class="cls-3" x="65.96" y="155.26" width="409.32" height="80.68"/>
    </clipPath>
    <linearGradient id="Dégradé_sans_nom_6" data-name="Dégradé sans nom 6" x1="-6.89" y1="285.24" x2="19.94" y2="185.12" gradientTransform="translate(90.04 -163.22) rotate(-180) scale(1.64 -1.64)" gradientUnits="userSpaceOnUse">
      <stop offset="0" stop-color="#000"/>
      <stop offset=".5" stop-color="#8e1913"/>
      <stop offset="1" stop-color="#000"/>
    </linearGradient>
    <linearGradient id="Dégradé_sans_nom_6-2" data-name="Dégradé sans nom 6" x1="-101.08" y1="285.92" x2="-79.34" y2="204.77" xlink:href="#Dégradé_sans_nom_6"/>
    <linearGradient id="Dégradé_sans_nom_6-3" data-name="Dégradé sans nom 6" x1="-195.22" y1="286.6" x2="-178.56" y2="224.43" xlink:href="#Dégradé_sans_nom_6"/>
    <clipPath id="clippath-2">
      <rect class="cls-3" x="494.26" y="48.03" width="413.25" height="73.69"/>
    </clipPath>
    <linearGradient id="Dégradé_sans_nom_6-4" data-name="Dégradé sans nom 6" x1="-6.19" y1="521.44" x2="18.94" y2="427.64" gradientTransform="translate(883.55 837.96) scale(1.64 -1.64)" xlink:href="#Dégradé_sans_nom_6"/>
    <linearGradient id="Dégradé_sans_nom_6-5" data-name="Dégradé sans nom 6" x1="-101.5" y1="522.07" x2="-81.01" y2="445.6" gradientTransform="translate(883.55 837.96) scale(1.64 -1.64)" xlink:href="#Dégradé_sans_nom_6"/>
    <linearGradient id="Dégradé_sans_nom_6-6" data-name="Dégradé sans nom 6" x1="-196.74" y1="522.69" x2="-180.9" y2="463.56" gradientTransform="translate(883.55 837.96) scale(1.64 -1.64)" xlink:href="#Dégradé_sans_nom_6"/>
  </defs>
  <path class="cls-7" d="M263.19,149.14l10,4.86s2.61,1.15.02,2.55l-9.29,6.22s-2.08,1.4-2.39-.88v-11.53c-.04-.45.01-.81.06-1.04.09-.41.18-.49.23-.52.18-.11.42-.03.77.08.27.09.47.19.6.26Z"/>
  <text/>
  <g>
    <path class="cls-7" d="M175.27,113.31h31.14v10.26h-19.61v8.52h18.12v10.1h-18.12v8.52h20.48v9.94h-32.01v-47.35ZM183.9,152.92v-31.56l-5.73-5.84v42.93l5.73-5.52Z"/>
    <path class="cls-7" d="M221.15,123.57h-10.51v-10.26h32.79v10.26h-10.67v37.09h-11.61v-37.09ZM229.94,158.45v-34.88h-6.04v34.88h6.04Z"/>
    <path class="cls-7" d="M291.59,111.73c8.94,0,15.14,3.39,20.16,8.68l-7.92,7.58c-3.3-3.24-7.53-5.29-12.24-5.29-8.39,0-13.81,6.31-13.81,14.28s5.41,14.28,13.81,14.28c4.71,0,8.94-2.05,12.24-5.29l7.69,7.58c-4.71,4.97-11.22,8.68-19.93,8.68-14.9,0-25.49-11.13-25.49-25.25s10.59-25.25,25.49-25.25ZM303.75,124.75l4.47-4.34c-4.16-4.26-9.57-6.47-16.63-6.47v6.55c4.47,0,8.79,1.66,12.16,4.26ZM308.07,153.71l-4.47-4.58c-2.82,2.53-7.3,4.34-12,4.34v6.55c6.9,0,12.08-2.21,16.47-6.31Z"/>
    <path class="cls-7" d="M317.32,113.31h11.53v37.4h20.48v9.94h-32.01v-47.35ZM325.95,152.92v-37.4h-5.73v42.93l5.73-5.52Z"/>
    <path class="cls-7" d="M375.29,111.73h2.04l23.06,48.93h-12.4l-2.35-4.89h-18.59l-2.27,4.89h-12.39l22.91-48.93ZM362.73,158.45l5.1-10.97h-6.35l-5.18,10.97h6.43ZM381.72,147.48l-5.41-11.99h-.16l-5.49,11.99h11.06ZM389.88,158.45h6.51l-5.18-10.97h-6.35l5.02,10.97Z"/>
    <path class="cls-7" d="M405.4,113.31h19.69c9.65,0,15.3,7.18,15.3,15.15,0,8.84-6.59,15.15-15.3,15.15h-8.24v17.04h-11.45v-47.35ZM413.95,158.45v-42.93h-5.65v42.93h5.65ZM424,133.67c2.98,0,4.63-2.76,4.63-5.52,0-2.6-1.57-4.97-4.63-4.97h-7.14v10.5h7.14Z"/>
    <path class="cls-7" d="M465.57,114.41v-1.1h13.49v1.1l-5.49,33.93h-2.67l-5.34-33.93ZM472.15,150.95c3.37,0,5.65,2.05,5.65,5.44s-2.27,5.44-5.65,5.44-5.65-2.05-5.65-5.44,2.28-5.44,5.65-5.44Z"/>
  </g>
  <g class="cls-14">
    <rect class="cls-1" x="65.84" y="48.05" width="841.86" height="187.9"/>
  </g>
  <g class="cls-13">
    <rect class="cls-10" y="155.3" width="158.7" height="133.2"/>
    <rect class="cls-2" x="158.42" y="188.6" width="158.7" height="99.9"/>
    <rect class="cls-8" x="316.74" y="221.9" width="158.7" height="66.6"/>
  </g>
  <g class="cls-11">
    <rect class="cls-6" x="813.91" width="160.16" height="121.72"/>
    <rect class="cls-5" x="654.04" width="160.16" height="91.29"/>
    <rect class="cls-9" x="494.26" width="160.16" height="60.86"/>
  </g>
  <path class="cls-7" d="M314.21,48.38h-7.9c-1.88,0-3.4,1.79-3.4,4.01v4.99c0,2.21-1.52,4.01-3.4,4.01h-7.37c-1.88,0-3.4-1.79-3.4-4.01v-4.99c0-2.21-1.52-4.01-3.4-4.01h-88.72c-1.88,0-3.4,1.79-3.4,4.01v4.99c0,2.21-1.52,4.01-3.4,4.01h-7.37c-1.88,0-3.4-1.79-3.4-4.01v-4.99c0-2.21-1.52-4.01-3.4-4.01h-7.64c-1.88,0-3.4,1.79-3.4,4.01v180.32c0,2.21,1.52,4.01,3.4,4.01h7.64c1.88,0,3.4-1.79,3.4-4.01v-3.66c0-2.21,1.52-4.01,3.4-4.01h7.37c1.88,0,3.4,1.79,3.4,4.01v3.66c0,2.21,1.52,4.01,3.4,4.01h88.72c1.88,0,3.4-1.79,3.4-4.01v-3.66c0-2.21,1.52-4.01,3.4-4.01h7.37c1.88,0,3.4,1.79,3.4,4.01v3.66c0,2.21,1.52,4.01,3.4,4.01h7.9c1.88,0,3.4-1.79,3.4-4.01V52.39c0-2.21-1.52-4.01-3.4-4.01ZM193.23,201.73c0,2.21-1.52,4.01-3.4,4.01h-7.37c-1.88,0-3.4-1.79-3.4-4.01v-8.69c0-2.21,1.52-4.01,3.4-4.01h7.37c1.88,0,3.4,1.79,3.4,4.01v8.69ZM193.23,165.72c0,2.21-1.52,4.01-3.4,4.01h-7.37c-1.88,0-3.4-1.79-3.4-4.01v-8.69c0-2.21,1.52-4.01,3.4-4.01h7.37c1.88,0,3.4,1.79,3.4,4.01v8.69ZM193.23,129.72c0,2.21-1.52,4.01-3.4,4.01h-7.37c-1.88,0-3.4-1.79-3.4-4.01v-8.69c0-2.21,1.52-4.01,3.4-4.01h7.37c1.88,0,3.4,1.79,3.4,4.01v8.69ZM193.23,93.71c0,2.21-1.52,4.01-3.4,4.01h-7.37c-1.88,0-3.4-1.79-3.4-4.01v-8.69c0-2.21,1.52-4.01,3.4-4.01h7.37c1.88,0,3.4,1.79,3.4,4.01v8.69ZM274.05,215.54c0,2.21-1.52,4.01-3.4,4.01h-59.07c-1.88,0-3.4-1.79-3.4-4.01v-32.2c0-2.21,1.52-4.01,3.4-4.01h59.07c1.88,0,3.4,1.79,3.4,4.01v32.2h0ZM274.05,158.65c0,2.21-1.52,4.01-3.4,4.01h-59.07c-1.88,0-3.4-1.79-3.4-4.01v-32.2c0-2.21,1.52-4.01,3.4-4.01h59.07c1.88,0,3.4,1.79,3.4,4.01v32.2h0ZM274.05,101.77c0,2.21-1.52,4.01-3.4,4.01h-59.07c-1.88,0-3.4-1.79-3.4-4.01v-32.2c0-2.21,1.52-4.01,3.4-4.01h59.07c1.88,0,3.4,1.79,3.4,4.01v32.2h0ZM302.91,201.73c0,2.21-1.52,4.01-3.4,4.01h-7.37c-1.88,0-3.4-1.79-3.4-4.01v-8.69c0-2.21,1.52-4.01,3.4-4.01h7.37c1.88,0,3.4,1.79,3.4,4.01v8.69ZM302.91,165.72c0,2.21-1.52,4.01-3.4,4.01h-7.37c-1.88,0-3.4-1.79-3.4-4.01v-8.69c0-2.21,1.52-4.01,3.4-4.01h7.37c1.88,0,3.4,1.79,3.4,4.01v8.69ZM302.91,129.72c0,2.21-1.52,4.01-3.4,4.01h-7.37c-1.88,0-3.4-1.79-3.4-4.01v-8.69c0-2.21,1.52-4.01,3.4-4.01h7.37c1.88,0,3.4,1.79,3.4,4.01v8.69ZM302.91,93.71c0,2.21-1.52,4.01-3.4,4.01h-7.37c-1.88,0-3.4-1.79-3.4-4.01v-8.69c0-2.21,1.52-4.01,3.4-4.01h7.37c1.88,0,3.4,1.79,3.4,4.01v8.69Z"/>
  <path class="cls-4" d="M459.93,105.87c-1.36.7-2.45,1.38-3.27,2.04-.82.66-1.46,1.3-1.93,1.93-.47.63-.78,1.23-.94,1.8-.16.57-.25,1.12-.29,1.65-.07.95.27,1.45,1.02,1.51,3.26.23,4.78,2.09,4.53,5.57-.14,1.95-.73,3.42-1.79,4.41-1.05.99-2.44,1.42-4.17,1.3-2.1-.15-3.65-.96-4.65-2.44-1-1.48-1.4-3.56-1.21-6.25.25-3.59,1.34-6.52,3.25-8.8,1.92-2.28,4.6-4.22,8.04-5.84l1.4,3.12Z"/>
  <path class="cls-4" d="M474.76,119.5c-1.15.47-2.07.95-2.78,1.42-.71.48-1.27.95-1.69,1.43-.42.48-.71.94-.88,1.4-.17.45-.28.89-.35,1.31-.12.76.12,1.19.72,1.29,2.62.41,3.72,2.01,3.29,4.81-.24,1.57-.82,2.72-1.74,3.44-.92.73-2.07.98-3.46.77-1.69-.26-2.89-1.02-3.59-2.29-.71-1.26-.89-2.97-.56-5.14.44-2.88,1.52-5.18,3.22-6.9,1.7-1.71,4-3.1,6.89-4.17l.92,2.62Z"/>
  <path class="cls-4" d="M809.55,192.62c1.36-.74,2.44-1.44,3.25-2.13.81-.68,1.44-1.35,1.9-1.99.46-.65.76-1.26.9-1.84.15-.58.23-1.14.26-1.67.05-.96-.31-1.46-1.06-1.49-3.3-.16-4.86-2-4.69-5.52.09-1.97.66-3.47,1.7-4.48,1.04-1.02,2.43-1.48,4.17-1.4,2.12.1,3.7.89,4.74,2.35,1.04,1.46,1.49,3.56,1.36,6.27-.17,3.62-1.2,6.6-3.08,8.94-1.88,2.34-4.54,4.36-7.97,6.06l-1.48-3.12Z"/>
  <path class="cls-4" d="M825.63,202.43c1.25-.51,2.26-1.03,3.03-1.55.77-.52,1.38-1.04,1.84-1.56.46-.52.78-1.03.96-1.52.18-.49.31-.97.38-1.43.13-.83-.13-1.3-.79-1.4-2.86-.44-4.05-2.19-3.58-5.24.26-1.71.89-2.96,1.89-3.75,1-.79,2.26-1.07,3.77-.83,1.84.29,3.14,1.12,3.91,2.49.77,1.37.97,3.24.61,5.59-.48,3.14-1.65,5.64-3.51,7.51-1.86,1.86-4.35,3.38-7.5,4.54l-1-2.85Z"/>
  <g>
    <path class="cls-12" d="M436.93,181.12c.8.95,1.16,2.26.86,3.58l-.26,1.29,13.18-8.56c.92-.59,1.33-1.79.87-2.8-.29-.63-.83-1.04-1.43-1.19-.53-.13-1.1-.04-1.6.27l-11.62,7.4Z"/>
    <path class="cls-12" d="M424.06,196.88l.88-.66,5.13-13.49c.5-1.82,2.13-3.04,3.91-3.02l.4-1.97c.27-1.15-.43-2.31-1.54-2.57s-2.25.46-2.52,1.61l-5.37,14.13s0,0,0,0l-2.41,1.81c-.38.28-.48.81-.24,1.22l1.77,2.95Z"/>
    <path class="cls-12" d="M453.02,178.41c.8.41,1.44,1.08,1.83,1.93.26.57.37,1.17.36,1.76l1.36-.87c.92-.59,1.33-1.79.87-2.8-.29-.63-.83-1.04-1.43-1.19-.53-.13-1.1-.04-1.6.27l-1.4.89Z"/>
    <path class="cls-12" d="M465.81,182.31c.18.04.38.03.57-.05l2.69-1.13c.49-.2.72-.77.53-1.27-.19-.5-.74-.73-1.23-.53l-2.69,1.13c-.49.2-.72.77-.53,1.27.12.3.37.51.66.58Z"/>
    <path class="cls-12" d="M463.11,179.15c.1.07.2.11.31.14.37.09.78-.06,1.01-.41l1.63-2.48c.29-.45.18-1.05-.25-1.35-.43-.3-1.02-.18-1.32.27l-1.63,2.48c-.29.45-.18,1.05.25,1.35Z"/>
    <path class="cls-12" d="M469.37,185.01h-.02s-2.82-.65-2.82-.65c-.51-.11-1.01.19-1.12.72-.11.52.2,1.04.7,1.15h.02s2.83.62,2.83.62c.51.11,1.01-.21,1.13-.74.11-.52-.21-.99-.71-1.11Z"/>
    <path class="cls-12" d="M458.56,202.58c1.06-.68,1.35-2.17.56-3.2-.3-.38-.7-.63-1.14-.74-.55-.13-1.16-.04-1.68.29l-5.71,3.64c-.23.15-.49.18-.74.13s-.46-.21-.6-.45v-.02c-.31-.51-.16-1.18.34-1.49l9.21-5.87c.92-.59,1.33-1.79.87-2.8-.29-.63-.83-1.04-1.43-1.19-.53-.13-1.1-.04-1.6.27l-9.3,5.92c-.24.15-.52.19-.77.13s-.48-.22-.63-.46c-.3-.5-.14-1.15.34-1.46l11.83-7.53c.92-.59,1.33-1.79.87-2.8-.29-.63-.83-1.04-1.43-1.19-.53-.13-1.1-.04-1.6.27l-11.88,7.57c-.24.15-.52.19-.78.13s-.49-.22-.64-.47c-.29-.49-.14-1.13.34-1.44l9.24-5.89c.92-.59,1.33-1.79.87-2.8-.29-.63-.83-1.04-1.43-1.19-.53-.13-1.1-.04-1.6.27l-13.42,8.55c-.24.15-.5.18-.73.13-.48-.11-.85-.59-.73-1.17l.71-3.47c.27-1.15-.42-2.31-1.54-2.57s-2.25.46-2.52,1.61l-5.37,14.13s0,0,0,0l-2.41,1.8c-.38.28-.48.81-.24,1.22l8.12,13.52c.13.21.33.35.55.4.18.04.38.03.57-.06l2.85-1.33c.12-.06.25-.08.39-.08,4.39.06,10.01-2.56,15.65-6.15l6.6-4.2Z"/>
    <line class="cls-12" x1="452.14" y1="178.09" x2="452.15" y2="178.09"/>
  </g>
  <g>
    <path class="cls-7" d="M507.49,172.26c-1.64,0-3.16-.16-4.53-.47-2.53-.58-4.67-1.63-6.4-3.15-1.73-1.52-3.02-3.44-3.87-5.77-.76-2.15-1.2-4.29-1.33-6.44-.13-2.15.04-4.18.53-6.1.49-1.92,1.28-3.71,2.37-5.36,1.09-1.65,2.43-3.08,4.03-4.29,1.64-1.25,3.42-2.16,5.33-2.72,1.91-.56,3.88-.79,5.9-.7,2.02.09,4.06.5,6.1,1.24,2.04.74,4.02,1.8,5.93,3.19,1.02.76,1.63,1.78,1.83,3.05.2,1.27-.08,2.45-.83,3.52-.76,1.03-1.78,1.64-3.07,1.84-1.29.2-2.44-.08-3.47-.84-2.13-1.56-4.28-2.44-6.43-2.62-2.16-.18-4.06.34-5.7,1.54-1.56,1.16-2.54,2.77-2.97,4.83-.42,2.06-.21,4.29.63,6.71.22.54.54,1.07.97,1.61.42.54,1.21.94,2.37,1.21,1.2.27,2.47.35,3.8.23,1.33-.11,2.61-.34,3.83-.67,1.22-.33,2.29-.71,3.2-1.14.91-.42,1.52-.77,1.83-1.04.93-.89,2.04-1.33,3.33-1.31,1.29.02,2.38.48,3.27,1.37.89.94,1.33,2.05,1.33,3.32s-.45,2.36-1.33,3.25c-.67.67-1.59,1.35-2.77,2.05-1.18.69-2.51,1.31-4,1.84-1.49.54-3.08.97-4.77,1.31-1.69.33-3.4.5-5.13.5Z"/>
    <path class="cls-7" d="M557.35,165.35c.76,1.07,1.02,2.27.8,3.59-.22,1.32-.87,2.36-1.93,3.12-.84.58-1.78.87-2.8.87-.76,0-1.47-.17-2.13-.5-.67-.34-1.24-.84-1.73-1.51-.09-.18-.19-.35-.3-.5-.11-.16-.21-.35-.3-.57-2.98,2.46-5.73,3.69-8.27,3.69-1.2,0-2.33-.22-3.4-.67-1.65-.71-3.03-1.92-4.17-3.62-1.13-1.7-2.04-3.72-2.73-6.07-.69-2.35-1.19-4.92-1.5-7.71-.31-2.79-.5-5.62-.57-8.48-.07-2.86-.03-5.68.1-8.45.13-2.77.29-5.3.47-7.58.09-1.3.64-2.37,1.67-3.22,1.02-.85,2.18-1.23,3.47-1.14,1.29.13,2.35.7,3.2,1.71.84,1.01,1.22,2.16,1.13,3.45-.31,3.62-.47,7.2-.47,10.73s.11,6.77.33,9.72c.22,2.95.57,5.47,1.03,7.54.47,2.08,1.01,3.45,1.63,4.12.27-.13.78-.47,1.53-1.01.75-.54,1.78-1.54,3.07-3.02.04-.04.08-.07.1-.07.02,0,.05-.02.1-.07-.36-2.23-.59-4.5-.7-6.81-.11-2.3-.14-4.45-.1-6.44.04-1.99.12-3.73.23-5.23.11-1.5.19-2.58.23-3.25.13-1.3.72-2.37,1.77-3.22,1.04-.85,2.21-1.21,3.5-1.07,1.29.13,2.34.72,3.17,1.74.82,1.03,1.17,2.19,1.03,3.49-.18,2.1-.3,4.45-.37,7.04-.07,2.59-.01,5.15.17,7.68.18,2.53.48,4.84.9,6.94.42,2.1,1.03,3.69,1.83,4.76Z"/>
    <path class="cls-7" d="M598.75,129.68c.31.67.48,1.35.5,2.04.02.69-.09,1.36-.33,2.01-.25.65-.6,1.23-1.07,1.74-.47.51-1.03.93-1.7,1.24-1.91.89-3.72,1.68-5.43,2.35-1.71.67-3.34,1.25-4.9,1.74.13,3.67.35,6.94.67,9.82.31,2.88.66,5.43,1.03,7.64s.78,4.11,1.2,5.7c.42,1.59.83,2.9,1.23,3.92,0,.04.02.07.07.07.27.67.34,1.34.23,2.01-.11.67-.34,1.27-.7,1.81-.36.54-.83.97-1.43,1.31-.6.34-1.26.48-1.97.44h-.27c-1.56-.13-3-.7-4.33-1.71-1.33-1.01-2.25-2.36-2.73-4.06-.76-2.73-1.47-6.1-2.13-10.13-.67-4.02-1.13-8.85-1.4-14.48-.93.09-1.81.16-2.63.2-.82.04-1.59.07-2.3.07-1.29,0-2.32-.04-3.1-.13-.78-.09-1.28-.16-1.5-.2-.71-.18-1.34-.47-1.9-.87s-1.02-.89-1.4-1.48c-.38-.58-.62-1.22-.73-1.91-.11-.69-.1-1.4.03-2.11.36-1.43,1.13-2.54,2.33-3.32,1.2-.78,2.51-1.02,3.93-.7.09,0,.67.03,1.73.1,1.07.07,2.6-.03,4.6-.3,2-.27,4.47-.8,7.4-1.61,2.93-.8,6.27-2.08,10-3.82.67-.31,1.34-.48,2.03-.5.69-.02,1.36.09,2,.34.64.25,1.22.6,1.73,1.07.51.47.92,1.04,1.23,1.71Z"/>
    <path class="cls-7" d="M635.48,172.26c-1.64,0-3.16-.16-4.53-.47-2.53-.58-4.67-1.63-6.4-3.15-1.73-1.52-3.02-3.44-3.87-5.77-.76-2.15-1.2-4.29-1.33-6.44-.13-2.15.04-4.18.53-6.1.49-1.92,1.28-3.71,2.37-5.36,1.09-1.65,2.43-3.08,4.03-4.29,1.64-1.25,3.42-2.16,5.33-2.72,1.91-.56,3.88-.79,5.9-.7,2.02.09,4.06.5,6.1,1.24,2.04.74,4.02,1.8,5.93,3.19,1.02.76,1.63,1.78,1.83,3.05.2,1.27-.08,2.45-.83,3.52-.76,1.03-1.78,1.64-3.07,1.84-1.29.2-2.44-.08-3.47-.84-2.13-1.56-4.28-2.44-6.43-2.62-2.16-.18-4.06.34-5.7,1.54-1.56,1.16-2.54,2.77-2.97,4.83-.42,2.06-.21,4.29.63,6.71.22.54.54,1.07.97,1.61.42.54,1.21.94,2.37,1.21,1.2.27,2.47.35,3.8.23,1.33-.11,2.61-.34,3.83-.67,1.22-.33,2.29-.71,3.2-1.14.91-.42,1.52-.77,1.83-1.04.93-.89,2.04-1.33,3.33-1.31,1.29.02,2.38.48,3.27,1.37.89.94,1.33,2.05,1.33,3.32s-.45,2.36-1.33,3.25c-.67.67-1.59,1.35-2.77,2.05-1.18.69-2.51,1.31-4,1.84-1.49.54-3.08.97-4.77,1.31-1.69.33-3.4.5-5.13.5Z"/>
    <path class="cls-7" d="M669.21,173.53h-.7c-.24,0-.48-.02-.7-.07-3.29-.4-5.89-2.03-7.8-4.9-1.07-1.61-1.88-3.54-2.43-5.8-.56-2.26-.93-4.66-1.13-7.21-.2-2.55-.27-5.12-.2-7.71.07-2.59.2-5.02.4-7.28.2-2.26.42-4.25.67-5.97.24-1.72.43-2.96.57-3.72.22-1.43.9-2.55,2.03-3.35,1.13-.8,2.39-1.1,3.77-.87,1.42.22,2.53.91,3.33,2.05.8,1.14,1.09,2.43.87,3.86-.4,2.46-.75,5.21-1.03,8.25-.29,3.04-.45,6-.47,8.89-.02,2.88.12,5.52.43,7.91.31,2.39.84,4.17,1.6,5.33.13.18.23.28.3.3.07.02.17.06.3.1.71.04,1.6-.14,2.67-.57,1.07-.42,2.18-.99,3.33-1.71,1.16-.71,2.3-1.5,3.43-2.35,1.13-.85,2.1-1.65,2.9-2.41,1.02-.94,2.23-1.39,3.63-1.34,1.4.04,2.57.58,3.5,1.61.49.54.84,1.12,1.07,1.74.22.63.32,1.26.3,1.91-.02.65-.17,1.29-.43,1.91-.27.63-.64,1.19-1.13,1.68-.45.4-1.3,1.14-2.57,2.21-1.27,1.07-2.78,2.17-4.53,3.29-1.76,1.12-3.67,2.1-5.73,2.95-2.07.85-4.14,1.27-6.23,1.27Z"/>
    <path class="cls-7" d="M725.61,144.36c1.29-.09,2.41.29,3.37,1.14.96.85,1.48,1.92,1.57,3.22.09,1.3-.29,2.43-1.13,3.39-.85.96-1.91,1.49-3.2,1.58-.71.09-1.57.17-2.57.23-1,.07-2.12.15-3.37.23.09,1.83.11,3.6.07,5.3-.04,1.7-.11,3.26-.2,4.69-.09,1.43-.18,2.69-.27,3.79-.09,1.1-.16,1.93-.2,2.52-.18,1.21-.71,2.2-1.6,2.98-.89.78-1.91,1.17-3.07,1.17h-.53c-1.29-.13-2.33-.72-3.13-1.74s-1.13-2.19-1-3.49c.22-2.06.4-4.3.53-6.74.13-2.44.16-4.91.07-7.41-1.56.22-3.1.46-4.63.7-1.53.25-2.95.5-4.23.77.09,1.3.22,2.59.4,3.89.18,1.3.4,2.59.67,3.89.22,1.3-.02,2.48-.73,3.55-.71,1.07-1.71,1.72-3,1.94-1.29.22-2.46-.01-3.5-.7-1.04-.69-1.7-1.69-1.97-2.98-.18-.89-.4-2.25-.67-4.06s-.49-3.9-.67-6.27c-.09-.18-.18-.35-.27-.5-.09-.16-.18-.35-.27-.57-.22-.63-.3-1.27-.23-1.94.07-.67.26-1.27.57-1.81,0-2.37.13-4.74.4-7.11.27-2.37.77-4.59,1.5-6.67.73-2.08,1.75-3.89,3.07-5.43,1.31-1.54,2.99-2.65,5.03-3.32l.33-.07c2.49-.63,4.61-.63,6.37,0,1.75.63,3.12,1.39,4.1,2.28,1.69,1.52,3.02,3.51,4,5.97.98,2.46,1.71,5.14,2.2,8.05,1.73-.18,3.17-.3,4.3-.37,1.13-.07,1.77-.1,1.9-.1ZM701.88,147.18c1.33-.27,2.69-.5,4.07-.7,1.38-.2,2.78-.41,4.2-.64-.31-1.88-.71-3.51-1.2-4.9-.49-1.39-1.11-2.39-1.87-3.02-.18-.13-.38-.26-.6-.37-.22-.11-.64-.1-1.27.03-.98.4-1.73,1.46-2.27,3.19-.53,1.72-.89,3.86-1.07,6.4Z"/>
    <path class="cls-7" d="M754.94,128.54c1.11.89,1.89,2.05,2.33,3.45s.51,2.92.2,4.53c-.22,1.3-.7,2.67-1.43,4.12-.73,1.45-1.68,2.91-2.83,4.36-1.16,1.45-2.49,2.85-4,4.19-1.51,1.34-3.18,2.55-5,3.62.35,2.24.77,4.22,1.23,5.97.47,1.74.92,3.22,1.37,4.43.44,1.21,1,2.46,1.67,3.76.62,1.03.77,2.12.43,3.29-.33,1.16-1.01,2.06-2.03,2.68-.67.4-1.38.6-2.13.6s-1.47-.18-2.13-.54c-.67-.36-1.2-.89-1.6-1.61-.04-.09-.28-.52-.7-1.31-.42-.78-.9-1.85-1.43-3.22-.53-1.36-1.09-3.04-1.67-5.03-.58-1.99-1.07-4.24-1.47-6.74-1.11-.49-1.87-1.34-2.27-2.55-.36-.89-.39-1.79-.1-2.68.29-.89.81-1.63,1.57-2.21-.13-2.28-.16-4.68-.07-7.21.09-2.53.36-5.2.8-8.01.13-1.07.62-1.96,1.47-2.65.84-.69,1.8-1.04,2.87-1.04l.4-.2c6.62-2.59,11.47-2.59,14.53,0ZM743.54,142.62c1.51-1.34,2.72-2.68,3.63-4.02.91-1.34,1.48-2.44,1.7-3.29-.44.04-1.07.13-1.87.27-.8.13-1.84.45-3.13.94-.09,1.07-.17,2.11-.23,3.12-.07,1.01-.1,2-.1,2.98Z"/>
    <path class="cls-7" d="M782.08,172.26c1.24,0,2.3.44,3.17,1.31.87.87,1.3,1.93,1.3,3.19v3.35c0,1.25-.43,2.31-1.3,3.19-.87.87-1.92,1.31-3.17,1.31s-2.3-.44-3.17-1.31c-.87-.87-1.3-1.93-1.3-3.19v-3.35c0-1.25.43-2.31,1.3-3.19.87-.87,1.92-1.31,3.17-1.31ZM784.81,126.46c1.24.09,2.28.59,3.1,1.51.82.92,1.19,2,1.1,3.25-.22,3.44-.43,6.89-.63,10.33-.2,3.44-.41,6.91-.63,10.39-.18,2.41-.36,4.81-.53,7.18-.18,2.37-.36,4.74-.53,7.11-.09,1.21-.57,2.2-1.43,2.98-.87.78-1.88,1.17-3.03,1.17h-.33c-1.25-.09-2.27-.6-3.07-1.54-.8-.94-1.16-2.03-1.07-3.29.18-2.37.36-4.74.53-7.11.18-2.37.36-4.76.53-7.18.22-3.44.43-6.87.63-10.29s.41-6.85.63-10.29c.09-1.25.59-2.29,1.5-3.12.91-.83,1.99-1.2,3.23-1.11Z"/>
  </g>
</svg>