<?xml version="1.0" standalone="no"?>
<!DOCTYPE svg PUBLIC "-//W3C//DTD SVG 20010904//EN"
 "http://www.w3.org/TR/2001/REC-SVG-20010904/DTD/svg10.dtd">
<svg version="1.0" xmlns="http://www.w3.org/2000/svg"
 width="409.000000pt" height="409.000000pt" viewBox="0 0 409.000000 409.000000"
 preserveAspectRatio="xMidYMid meet">
<metadata>
Created by potrace 1.14, written by Peter Selinger 2001-2017
</metadata>
<g transform="translate(0.000000,409.000000) scale(0.100000,-0.100000)"
fill="#000000" stroke="none">
<path d="M1886 4078 c-936 -76 -1696 -846 -1796 -1818 -9 -94 -9 -388 1 -449
4 -25 12 -80 19 -121 50 -316 188 -637 387 -901 75 -99 229 -263 313 -332 25
-20 50 -41 57 -47 16 -13 194 -132 223 -149 141 -82 384 -178 515 -206 171
-35 296 -49 440 -49 90 0 229 10 275 19 13 2 42 7 64 11 215 32 508 150 718
290 427 284 749 752 853 1239 7 33 25 118 30 145 19 98 27 454 12 583 -30 277
-138 591 -287 837 -132 217 -331 435 -525 577 -250 182 -538 306 -810 349 -22
3 -42 7 -45 9 -24 15 -319 23 -444 13z"/>
</g>
</svg>
